<svg viewBox="0 0 545 248.7" version="1.1" xmlns="http://www.w3.org/2000/svg" data-sanitized-data-name="Layer 1" data-name="Layer 1" id="Layer_1">
  <defs>
    <style>
      .cls-1 {
        fill: #fff;
        stroke-width: 0px;
      }
    </style>
  </defs>
  <path d="M237.2,109.9c5.4-9.5,25.3-44.3,35-61.3h-25.2l-34.3,82.8h12.4c4.5-8,9-15.9,12.1-21.5h0Z" class="cls-1"></path>
  <polygon points="210.3 107.7 153.5 107.7 153.5 100.1 210.3 100.1 210.3 80 153.5 80 153.5 72.3 210.3 72.3 210.3 48.6 122.8 48.6 122.8 131.4 210.3 131.4 210.3 107.7" class="cls-1"></polygon>
  <path d="M119.4,106.9c0-9-5.2-16.6-12.4-21.8,4-4.7,6.5-10.2,6.5-15.5,0-12.5-5.8-21-24.6-21H16.7v82.8h75.7c18.8,0,27-10.9,27-24.5h0ZM47.5,68.7h28.4c3.1,0,6.9,0,6.9,4.5s-3.8,4.5-6.9,4.5h-28.4v-9h0ZM81.8,108.9h-34.3v-8.8h34.3c3.1,0,6.9,0,6.9,4.4s-3.8,4.4-6.9,4.4h0Z" class="cls-1"></path>
  <path d="M315.2,18.1c-2.7,7.5-14.2,39.2-21,52.5-3.9,7.6-28.1,51.1-43.9,67.6,7.5-6.7,13.8-14.1,19.1-21.7h18l2.5,6.6c6.1-10.6,11.3-19.6,13.2-22.7,1.2-2,3.5-5.9,6.4-10.9l-10.8-26c12.1-22.5,17.2-46.9,17.2-46.9l-.7,1.6h0Z" class="cls-1"></path>
  <polygon points="47.5 142.6 16.7 142.6 16.7 225.4 101.9 225.4 101.9 199.4 47.5 199.4 47.5 142.6" class="cls-1"></polygon>
  <path d="M375.1,78.8c-18-.7-20.9-.6-20.9-3.8s3-3.9,17.4-3.9,22.1,1,22.1,5.3h30.8c0-21.2-18.2-29-50.5-29s-33.9,2.8-42.2,9c2.8-6.4,4.9-12,5.2-14.9-6.3,14.6-24.6,53.9-36.7,74-14.4,24-36.6,53.8-36.6,53.8,0,0,7-12.4,15.2-26.7h-40.2v82.8h87.5v-23.6h-56.8v-7.7h56.8v-20.1h-56.8v-7.7h56.8v-23.6h-40.9c2.8-4,5.4-7.9,7.8-11.5v.3h34l-14.7-35.4c.3-.6.6-1.2.9-1.8,1.3-2.6,5.6-10.8,10.3-20.1.3,18.8,14.7,24.9,51.7,26,19.4.6,22.1,1.1,22.1,4.6s-2.7,4.3-20.9,4.3-23.3-2.7-23.3-6.7h-30.8c0,24.6,18.9,30.4,52.9,30.4s52.9-5.8,52.9-28.6-20.2-23.9-52.9-25.2h0Z" class="cls-1"></path>
  <polygon points="427 48.6 427 74.6 462.5 74.6 462.5 131.4 493.3 131.4 493.3 74.6 528.8 74.6 528.8 48.6 427 48.6" class="cls-1"></polygon>
  <path d="M232.2,131.4h14.3l5.7-14.9h9.8c4-7.5,8.3-15.5,11.5-21.3h-13.2l9.6-25.3,7.2,18.9c.3-.5.5-1,.7-1.3,1.6-2.8,9.4-17.4,17.6-32.6l-2.6-6.3h-13.2c8.5-18.8,16.4-39.4,16.1-39.9,0,0-22.7,50.8-29.3,63-6.7,12.2-35.6,62.7-55.1,84.4,2-3.5,4.7-8.2,7.6-13.5h-73.6v82.8h30.8v-21.9h49.7v-26h-49.7v-8.9h56.8v-26h-8.6c2.7-3.4,5.4-7.2,8.2-11.2h0Z" class="cls-1"></path>
  <rect height="82.8" width="30.7" y="142.6" x="108.2" class="cls-1"></rect>
</svg>