<svg width="1094" height="960" viewBox="0 0 1094 960" fill="none" xmlns="http://www.w3.org/2000/svg">
<path opacity="0.34" d="M89.9257 640.519C88.7735 646.587 89.4403 652.861 91.8421 658.551C94.8732 665.91 99.3065 672.608 104.895 678.273C111.438 685.06 118.933 690.857 127.145 695.484C135.59 700.303 144.657 703.937 154.092 706.284C194.249 716.151 219.495 701.681 257.608 679.745L257.855 679.596C283.039 665.097 313.61 647.499 357.212 631.196C352.331 629.736 347.386 628.35 342.378 627.041C333.658 624.769 324.543 622.693 315.031 620.809C300.736 617.996 287.208 615.59 274.447 613.592C262.403 611.71 250.832 610.152 239.737 608.918C235.826 614.577 231.068 619.601 225.63 623.812C219.211 628.718 212.084 632.62 204.493 635.385C193.976 639.406 182.806 641.443 171.548 641.395C160.328 641.253 149.233 639.011 138.837 634.786C133.505 632.646 128.347 630.094 123.41 627.154C118.839 624.429 114.433 621.434 110.217 618.186C105.281 620.559 100.795 623.772 96.9592 627.682C93.485 631.237 91.0526 635.677 89.9257 640.519ZM376.539 624.352C390.415 619.72 405.411 615.263 421.707 611.114C438.448 606.847 456.756 602.84 476.837 599.226C512.933 592.721 544.843 585.67 572.937 577.964C597.892 571.34 622.342 562.943 646.101 552.837C665.067 544.9 683.013 534.718 699.555 522.509C712.679 512.842 723.881 500.806 732.583 487.022C741.165 472.972 746.171 457.03 747.164 440.595C748.059 421.388 745.438 402.178 739.43 383.914C734.331 367.038 726.515 351.107 716.29 336.747C706.564 323.04 694.469 311.182 680.574 301.731C671.866 295.834 662.417 291.113 652.473 287.69C643.623 284.57 634.325 282.906 624.943 282.765C622.74 282.761 620.538 282.877 618.348 283.112C616.301 283.336 614.269 283.684 612.263 284.153C608.149 284.917 604.234 286.511 600.756 288.839C597.279 291.167 594.313 294.181 592.04 297.694C587.981 304.434 586.726 313.36 588.554 323.996C591.023 339.104 592.034 354.415 591.571 369.717C591.177 385.894 589.4 402.007 586.258 417.881C582.54 436.884 576.534 455.368 568.371 472.926C560.861 489.13 551.05 504.163 539.244 517.562C522.927 535.972 502.573 550.355 479.774 559.588C455.012 569.264 428.602 574.023 402.021 573.598C399.724 573.598 397.084 573.566 394.108 573.48C391.349 573.405 388.67 573.284 386.078 573.141C361.235 571.799 336.517 568.715 312.106 563.912C291.827 559.934 271.875 554.446 252.414 547.492C253.213 553.996 253.447 560.557 253.113 567.102C252.728 575.153 251.255 583.116 248.732 590.771C248.029 592.849 247.275 594.834 246.489 596.668L246.24 597.246C256.184 598.423 266.592 599.868 277.464 601.579C290.407 603.621 303.724 605.995 317.416 608.701C327.865 610.763 338.15 613.136 348.27 615.823C357.92 618.393 367.343 621.234 376.539 624.352ZM142.148 608.624C137.293 609.427 132.768 610.378 128.575 611.476C126.92 611.906 125.312 612.366 123.748 612.841C134.221 620.257 146.136 625.386 158.72 627.896C172.649 630.376 186.992 628.967 200.173 623.824C206.463 621.529 212.38 618.319 217.733 614.295C220.426 612.245 222.927 609.955 225.206 607.452C209.765 606.101 195.495 605.464 182.394 605.541C168.918 605.518 155.462 606.555 142.148 608.642V608.624ZM600.034 918.251C603.045 927.785 607.067 936.969 612.029 945.648C614.46 949.862 617.187 953.898 620.19 957.726C618.674 943.211 616.378 928.788 613.31 914.521C607.826 888.643 599.969 863.327 589.839 838.893C589.639 850.757 590.115 862.622 591.265 874.432C592.628 889.312 595.567 904.006 600.034 918.266V918.251ZM235.545 527.361C233.165 519.536 230.097 511.937 226.378 504.652C222.164 496.279 216.951 488.448 210.851 481.331C206.335 475.958 200.982 471.348 195 467.68C190.614 464.933 185.58 463.398 180.409 463.228L178.884 463.282L177.383 463.456C174.422 463.737 171.592 464.818 169.198 466.585C168.536 467.174 168.022 467.91 167.697 468.735C167.372 469.56 167.244 470.45 167.326 471.333C167.59 477.001 172.577 485.253 182.795 494.708C194.819 505.319 208.23 514.246 222.658 521.244C225.577 522.728 228.719 524.256 232.083 525.799L235.545 527.361ZM77.7352 497.842C72.6981 496.179 67.4911 495.083 62.2108 494.578C57.8309 493.847 53.336 494.777 49.6053 497.186L49.0121 497.741C49.4692 498.05 49.9458 498.33 50.4389 498.577C52.3945 499.527 54.4901 500.157 56.6454 500.442C61.5099 501.143 66.4618 500.933 71.2499 499.824C73.4584 499.329 75.6257 498.664 77.7323 497.836L77.7352 497.842ZM95.0935 504.667L93.0169 503.712C87.6563 507.258 81.7396 509.882 75.5131 511.475C68.7282 513.243 61.6582 513.636 54.7195 512.629C50.6942 512.088 46.8148 510.762 43.3011 508.724C40.1719 506.978 37.8262 504.104 36.7419 500.688C36.2096 498.777 36.2096 496.756 36.7419 494.845C37.599 492.023 39.3076 489.535 41.6338 487.722C47.2349 483.019 54.8536 481.686 62.9764 482.25C72.7087 483.266 82.2344 485.73 91.2395 489.56C92.7161 488.274 94.1144 486.9 95.4259 485.447C97.3051 483.353 99.0244 481.121 100.57 478.77C112.573 459.77 122.192 439.365 129.21 418.014C135.605 399.002 140.953 379.653 145.23 360.055C148.463 346.243 154.15 333.124 162.019 321.322C169.792 309.611 179.609 299.397 191.003 291.169C192.267 290.251 193.603 289.326 195.011 288.394L196.494 287.424C195.586 284.561 194.994 281.608 194.729 278.616C194.384 274.517 194.63 270.389 195.459 266.36C197.371 257.764 201.31 249.75 206.949 242.987C213.493 235.057 221.286 228.247 230.021 222.826C241.013 215.971 252.8 210.482 265.12 206.48C279.191 201.857 293.656 198.529 308.332 196.539C331.597 193.409 354.685 189.08 377.504 183.571C395.475 179.285 413.063 173.528 430.091 166.359C443.328 160.889 455.762 153.649 467.053 144.835C475.991 137.843 483.368 129.058 488.71 119.044C494.607 108.167 501.384 97.7902 508.973 88.0181C517.173 77.2062 526.069 66.9405 535.605 57.2861L538.906 54.0215L540.74 52.2617C539.331 42.3004 536.522 32.5885 532.395 23.4141C529.182 16.9923 525.571 13.2978 521.64 12.5292C516.282 11.4727 509.236 15.1261 500.918 23.091C491.893 31.7118 481.738 45.223 470.883 63.1886C465.819 71.6131 458.722 78.6318 450.244 83.6023C441.8 88.5206 432.245 91.2096 422.476 91.416C397.629 91.5168 372.943 95.4045 349.267 102.945C324.976 110.598 297.394 122.62 256.14 140.612L242.579 146.517C204.033 163.296 182.883 179.849 170.079 197.856C157.322 215.781 152.65 235.545 147.236 258.526C142.867 279.273 136.606 299.575 128.528 319.177C119.816 338.649 108.97 357.095 96.1907 374.174C83.7574 391.244 70.4613 406.912 58.0012 421.602C45.7429 436.054 34.3092 449.524 25.9609 461.786C17.8619 473.656 12.6313 484.36 12.3465 493.652C12.1437 498.095 12.7554 502.539 14.1507 506.762C15.4428 510.508 17.5412 513.926 20.2977 516.772C24.0838 520.525 28.6385 523.413 33.6478 525.236C39.5343 527.444 45.7216 528.745 51.9991 529.094C61.934 525.853 71.4846 521.534 80.4795 516.214C85.8577 513.065 90.771 509.182 95.0782 504.676L95.0935 504.667ZM230.92 308.677C241.093 314.883 252.941 317.777 264.829 316.96C278.496 315.628 291.648 311.049 303.189 303.606C310.27 299.288 316.982 294.391 323.255 288.964C326.035 286.575 328.482 284.313 330.547 282.313C307.46 277.702 283.823 276.491 260.385 278.717C243.775 280.334 227.6 284.976 212.66 292.415C214.396 294.938 216.384 297.279 218.593 299.401C222.327 302.964 226.463 306.08 230.917 308.687L230.92 308.677ZM600.233 108.664C562.174 110.943 538.262 130.971 517.196 148.726L512.654 152.551C507.222 157.094 503.024 160.69 499.823 163.551C496.56 166.462 494.094 168.819 492.175 170.834C491.359 171.692 490.692 172.434 490.152 173.078C493.653 173.189 497.158 173.09 500.648 172.781C512.034 171.917 528.508 169.635 551.283 166.483L551.473 166.463C563.373 164.519 575.545 165.024 587.243 167.947C597.592 170.727 606.983 176.285 614.402 184.019C620.644 190.689 625.776 198.318 629.6 206.614C633.229 214.442 636.447 222.454 639.239 230.618C641.378 236.518 643.452 242.26 645.671 247.13C647.114 250.487 648.943 253.663 651.121 256.596C652.765 252.145 654.132 242.335 654.892 228.328C655.813 207.085 655.394 185.806 653.637 164.617C652.913 155.121 652.011 145.921 650.967 137.069C650.01 129.009 648.928 121.302 647.721 113.949C639.939 111.927 632.029 110.428 624.047 109.462C616.147 108.497 608.177 108.233 600.231 108.672L600.233 108.664ZM89.4418 599.291C78.8624 587.882 69.3692 575.511 61.086 562.339C55.2208 553.101 51.0942 545.403 48.9701 541.254C43.9999 540.828 39.0852 539.907 34.2975 538.506C25.6799 536.155 17.8123 531.624 11.4534 525.349C7.48815 521.267 4.45854 516.37 2.57438 511C0.640142 505.304 -0.217155 499.299 0.0466194 493.289C0.764557 470.009 22.938 443.879 48.6058 413.625C60.9739 399.048 74.1604 383.504 86.1369 367.076C98.4147 350.685 108.833 332.98 117.201 314.286C124.984 295.351 131.02 275.744 135.233 255.709L135.325 255.312C146.462 208.219 155.474 170.985 237.675 135.202L251.23 129.297C293.078 111.052 321.056 98.853 345.92 91.0364C370.61 83.2088 396.344 79.1764 422.244 79.077C429.92 78.9133 437.427 76.7903 444.052 72.91C450.741 68.9888 456.339 63.4513 460.334 56.805C468.6 42.6004 478.365 29.3238 489.463 17.203C500.736 5.56715 512.695 -1.83719 524.043 0.397391C531.356 1.83666 537.393 6.81962 542.25 15.4345C546.666 23.9884 549.786 33.1511 551.508 42.6229C558.22 36.8972 565.417 31.7659 573.017 27.2866C581.91 21.7585 591.964 18.369 602.388 17.3841C608.97 16.9288 615.549 18.3105 621.392 21.3754C627.36 24.6864 632.396 29.4499 636.035 35.225C641.564 44.2466 645.873 53.9623 648.848 64.1175C652.913 77.232 656.137 90.5924 658.502 104.117C677.974 110.044 696.865 117.737 714.938 127.101C738.152 139.06 760.604 152.448 782.162 167.187C839.74 206.062 902.017 247.445 959.469 285.358C1074.2 361.079 1063.01 351.333 1064.49 352.28C1065.51 352.944 1066.32 353.897 1066.8 355.019C1067.28 356.141 1067.42 357.381 1067.2 358.582C1066.98 359.783 1066.41 360.891 1065.55 361.765C1064.7 362.64 1063.61 363.242 1062.41 363.495C1061.62 363.669 1060.8 363.685 1060.01 363.541C1059.21 363.397 1058.45 363.095 1057.77 362.654L1057.59 362.53C1050.5 357.933 942.52 290.343 775.241 177.431C754.532 163.267 732.99 150.362 710.731 138.787C694.678 130.429 677.975 123.383 660.786 117.718C661.73 123.896 662.59 130.279 663.355 136.823C664.373 145.476 665.245 154.453 665.948 163.685C667.86 186.817 668.203 210.052 666.975 233.23C665.759 250.846 662.8 264.262 657.511 268.562C656.533 269.377 655.399 269.982 654.178 270.339C652.956 270.697 651.675 270.799 650.412 270.639C647.935 270.222 645.668 268.989 643.971 267.137C636.643 259.736 632.27 247.641 627.654 234.839V234.809C622.421 220.307 616.476 203.872 605.574 192.625C599.608 186.425 592.049 181.99 583.727 179.808C573.719 177.391 563.327 177.015 553.17 178.701C525.562 182.518 508.1 184.862 497.041 185.408C484.21 186.034 478.842 184.084 476.603 179.03C474.716 174.76 476.14 170.276 481.605 164.1C488.845 156.593 496.575 149.574 504.745 143.09L509.017 139.511C531.62 120.469 557.243 98.8885 599.5 96.3542C607.798 95.8848 616.12 96.1249 624.376 97.0722C631.429 97.8753 638.43 99.0812 645.345 100.684C643.227 89.4523 640.453 78.3546 637.038 67.4473C634.41 58.5301 630.627 49.9946 625.786 42.0592C623.283 38.0401 619.815 34.7107 615.698 32.3733C611.817 30.3344 607.443 29.4193 603.07 29.7318C594.942 30.5567 587.103 33.1935 580.128 37.4478C570.026 43.3648 560.637 50.4228 552.144 58.4823C551.799 58.8732 551.416 59.2288 551.001 59.5444C540.538 69.4284 530.828 80.082 521.955 91.416C513.567 101.835 506.132 112.988 499.74 124.739C493.675 136.172 485.299 146.218 475.143 154.239C462.911 163.861 449.418 171.758 435.039 177.709C417.431 185.138 399.241 191.106 380.654 195.551C357.376 201.178 333.823 205.598 310.089 208.795C296.215 210.67 282.54 213.805 269.235 218.161C257.818 221.846 246.894 226.915 236.708 233.253C229.207 237.894 222.496 243.704 216.831 250.466C212.327 255.751 209.164 262.045 207.611 268.814C207.051 271.574 206.876 274.398 207.092 277.206C207.199 278.513 207.393 279.812 207.67 281.094C225.796 272.216 245.502 267.019 265.648 265.805C291.978 264.269 318.392 266.512 344.087 272.464C345.134 272.69 346.106 273.181 346.908 273.892C347.7 274.606 348.3 275.51 348.65 276.518C348.996 277.527 349.073 278.608 348.873 279.656C348.673 280.703 348.204 281.681 347.511 282.491C342.006 288.744 336.016 294.552 329.598 299.861C323.331 305.13 316.673 309.913 309.68 314.17C296.348 322.675 281.162 327.836 265.41 329.216C251.13 330.177 236.899 326.72 224.648 319.316C219.324 316.212 214.383 312.494 209.925 308.238C206.936 305.365 204.269 302.174 201.974 298.721C191.444 305.698 182.258 314.517 174.859 324.755C166.567 336.155 160.61 349.081 157.329 362.791C152.946 382.89 147.461 402.733 140.899 422.229C133.55 444.494 123.487 465.768 110.936 485.571C109.292 488.085 107.48 490.486 105.515 492.758L103.439 495.04C104.786 495.717 106.144 496.418 107.464 497.136C108.181 497.543 108.81 498.088 109.316 498.738C110.092 499.721 110.548 500.918 110.621 502.169C110.695 503.419 110.383 504.662 109.728 505.73C104.585 513.538 97.7936 520.122 89.8308 525.019C80.9703 530.656 71.5195 535.306 61.6473 538.886C64.0206 543.337 67.7139 549.866 72.5971 557.443C80.198 569.338 88.8485 580.529 98.4454 590.881C100.985 593.583 103.534 596.144 106.091 598.561C108.057 600.417 110.047 602.205 112.06 603.926C115.933 602.413 119.884 601.111 123.897 600.024C129.253 598.573 134.68 597.398 140.157 596.504C154.393 594.286 168.782 593.206 183.189 593.273C199.92 593.295 216.639 594.165 233.282 595.878C236.976 588.534 239.312 580.581 240.176 572.405C241.23 562.406 240.87 552.307 239.105 542.409C218.28 534.281 198.731 523.201 181.059 509.507C164.303 495.913 155.495 482.425 155.003 471.953C154.817 469.372 155.201 466.781 156.131 464.366C157.06 461.951 158.51 459.771 160.378 457.981C164.615 454.229 169.912 451.885 175.538 451.272C183.377 450.259 191.335 451.737 198.289 455.495C206.646 459.953 214.064 465.982 220.139 473.25C226.891 481.113 232.662 489.769 237.325 499.026C242.286 508.721 246.181 518.926 248.942 529.462L249.916 533.364C268.234 540.374 287.062 545.971 306.235 550.106C332.748 555.824 359.675 559.417 386.76 560.849C417.613 562.597 445.097 559.119 469.047 550.492C492.523 542.154 513.508 528.01 530.051 509.377C550.464 486.497 563.79 457.364 571.382 427.412C579.861 394.329 581.559 359.871 576.373 326.115C574.023 312.425 575.931 300.505 581.594 291.193C584.701 286.304 588.767 282.096 593.548 278.825C598.328 275.555 603.722 273.288 609.404 272.164C621.998 269.507 635.043 269.888 647.46 273.277C661.737 277.013 675.262 283.184 687.442 291.519C702.543 301.776 715.694 314.647 726.276 329.525C737.304 344.998 745.734 362.167 751.234 380.356C757.723 400.138 760.52 420.946 759.485 441.74C758.322 460.068 752.706 477.834 743.121 493.497C733.68 508.503 721.529 521.619 707.289 532.176C689.896 545.076 671.009 555.827 651.038 564.196C626.77 574.519 601.797 583.099 576.31 589.872C547.794 597.695 515.493 604.847 479.021 611.417C460.749 614.711 443.848 618.364 428.175 622.272C416.601 625.162 405.699 628.18 395.47 631.323C412.626 638.043 429.282 645.977 445.31 655.064C463.958 665.636 481.61 677.875 498.052 691.63C516.146 706.804 532.665 723.764 547.358 742.253C559.812 757.939 570.984 774.601 580.766 792.079C582.178 780.691 584.026 768.97 586.31 756.914C589.42 740.479 593.325 723.478 598.026 705.91C603.704 684.698 609.671 668.815 616.295 657.615C623.279 645.822 631.105 639.059 640.156 636.661C652.83 633.314 666.138 638.798 681.541 650.541C696.197 661.714 712.908 678.647 733.028 699.034L733.058 699.064C803.258 770.193 909.356 877.693 1087.45 895.715C1089.02 895.867 1090.47 896.611 1091.5 897.796C1092.54 898.98 1093.08 900.515 1093.02 902.087L1092.99 902.475C1092.84 904.037 1092.09 905.482 1090.91 906.513C1089.73 907.545 1088.19 908.084 1086.63 908.022L1086.25 907.995C1064.99 905.853 1043.89 902.332 1023.08 897.454C1002.49 892.618 982.234 886.419 962.459 878.898C945.216 872.314 928.357 864.764 911.963 856.282C895.135 847.579 878.784 837.982 862.98 827.532C835.455 809.183 809.342 788.796 784.862 766.543C762.063 746.019 742.073 725.763 724.261 707.717C705.607 688.817 689.53 672.522 675.771 661.744C662.741 651.535 651.981 646.312 643.307 648.606C637.311 650.191 631.704 655.553 626.308 665.011C620.535 675.128 615.15 689.71 609.961 709.103C604.568 729.282 600.429 747.978 597.356 765.294C594.357 782.179 592.36 797.705 591.182 811.953L592.306 814.297C604.284 839.364 613.811 865.53 620.754 892.431C627.928 919.001 632.267 946.257 633.701 973.742C633.72 974.861 633.435 975.965 632.876 976.934C632.308 977.908 631.488 978.709 630.502 979.255C630.044 979.5 629.559 979.687 629.055 979.813C628.557 979.951 628.041 980.022 627.524 980.024C626.921 980.023 626.321 979.935 625.744 979.76C625.166 979.585 624.617 979.327 624.112 978.994C623.291 978.445 613.791 971.934 603.672 955.829C597.262 945.427 592.154 934.279 588.462 922.631C584.404 909.951 581.524 896.924 579.859 883.715C577.968 868.92 577.149 854.007 577.408 839.094C577.464 834.83 577.595 830.565 577.794 826.333C577.991 822.236 578.239 818.204 578.535 814.235C558.117 773.079 529.873 736.299 495.385 705.954C460.488 675.714 420.108 652.46 376.442 637.457C354.396 644.97 332.862 653.911 311.979 664.224C293.392 673.394 277.891 682.326 264.057 690.285L263.96 690.345C232.397 708.512 209.15 721.899 179.095 721.893C174.588 721.892 170.086 721.594 165.617 721.003C160.75 720.374 155.922 719.466 151.158 718.285C129.889 713.112 110.543 701.964 95.3991 686.155C81.5655 671.261 74.3857 653.716 77.8952 637.876C79.379 631.315 82.5321 625.249 87.0481 620.266C90.8147 616.108 95.1956 612.552 100.039 609.722L96.7752 606.681C94.3109 604.324 91.8666 601.861 89.4418 599.291Z" fill="#B5ED0C"/>
</svg>
