<svg viewBox="0 0 368.425 330.237" height="330.237" width="368.425" xmlns="http://www.w3.org/2000/svg">
  <path opacity="0.34" fill="#b5ed0c" transform="translate(-2482.358 -3541.393)" d="M2512.663,3757.232a10.556,10.556,0,0,0,.646,6.076,20.675,20.675,0,0,0,4.4,6.646,32.74,32.74,0,0,0,7.5,5.8,35.748,35.748,0,0,0,9.083,3.639c13.536,3.325,22.046-1.551,34.893-8.943l.083-.05c8.489-4.886,18.794-10.816,33.491-16.31q-2.468-.738-5-1.4-4.409-1.148-9.218-2.1-7.228-1.422-13.68-2.432-6.09-.951-11.7-1.575a22.6,22.6,0,0,1-4.755,5.019,26.89,26.89,0,0,1-7.125,3.9,30.741,30.741,0,0,1-11.105,2.025,30.318,30.318,0,0,1-11.026-2.227,37.36,37.36,0,0,1-5.2-2.572,45.188,45.188,0,0,1-4.447-3.022,15.936,15.936,0,0,0-4.469,3.2A9.16,9.16,0,0,0,2512.663,3757.232Zm96.611-5.448c4.677-1.561,9.732-3.063,15.225-4.461,5.643-1.438,11.814-2.788,18.583-4.006,12.167-2.192,22.923-4.568,32.393-7.165a182.913,182.913,0,0,0,24.662-8.467,86.708,86.708,0,0,0,18.018-10.22,44.084,44.084,0,0,0,11.133-11.958,33.938,33.938,0,0,0,4.915-15.645,53.184,53.184,0,0,0-2.607-19.1,54.654,54.654,0,0,0-7.8-15.894,47.555,47.555,0,0,0-12.039-11.8,40.266,40.266,0,0,0-9.472-4.731,29.243,29.243,0,0,0-9.28-1.66,20.622,20.622,0,0,0-2.223.117,17.19,17.19,0,0,0-2.051.351,10.373,10.373,0,0,0-6.817,4.563c-1.368,2.271-1.791,5.279-1.175,8.863a80.424,80.424,0,0,1,1.017,15.407,95.53,95.53,0,0,1-1.791,16.23,80.794,80.794,0,0,1-6.029,18.549,62.519,62.519,0,0,1-9.818,15.041,53.741,53.741,0,0,1-20.046,14.162,69,69,0,0,1-26.209,4.721c-.774,0-1.664-.011-2.667-.04-.93-.025-1.833-.066-2.707-.114a179.312,179.312,0,0,1-24.934-3.11,139.761,139.761,0,0,1-20.121-5.533,38.2,38.2,0,0,1,.236,6.608,30.073,30.073,0,0,1-1.477,7.976c-.237.7-.491,1.369-.756,1.987l-.084.195q5.028.595,10.525,1.46,6.544,1.032,13.467,2.4,5.283,1.042,10.4,2.4Q2604.624,3750.209,2609.274,3751.785Zm-79.008-5.3q-2.455.406-4.575.961c-.558.145-1.1.3-1.627.46a30.839,30.839,0,0,0,11.788,5.073,25.942,25.942,0,0,0,13.973-1.372,22.925,22.925,0,0,0,5.919-3.211,18.836,18.836,0,0,0,2.519-2.306q-7.807-.683-14.431-.644A86.667,86.667,0,0,0,2530.266,3746.49Zm154.343,104.337a47.294,47.294,0,0,0,4.043,9.232,34.6,34.6,0,0,0,2.751,4.07,136.934,136.934,0,0,0-2.319-14.559,145.039,145.039,0,0,0-7.912-25.485,105.2,105.2,0,0,0,.481,11.976A71.08,71.08,0,0,0,2684.609,3850.826ZM2561.748,3719.1a46.731,46.731,0,0,0-3.09-7.652,39.035,39.035,0,0,0-5.234-7.859,22,22,0,0,0-5.343-4.6,9.877,9.877,0,0,0-4.918-1.5l-.514.018-.506.059a5.523,5.523,0,0,0-2.759,1.054,1.907,1.907,0,0,0-.631,1.6c.089,1.91,1.77,4.691,5.214,7.877a59.662,59.662,0,0,0,13.437,8.942c.984.5,2.043,1.015,3.177,1.535Zm-53.194-9.947a23.983,23.983,0,0,0-5.233-1.1,6.012,6.012,0,0,0-4.249.879l-.2.187a4.317,4.317,0,0,0,.481.282,6.835,6.835,0,0,0,2.092.628,13.373,13.373,0,0,0,4.923-.208A14.867,14.867,0,0,0,2508.553,3709.151Zm5.851,2.3-.7-.322a19.416,19.416,0,0,1-5.9,2.616,17.717,17.717,0,0,1-7.009.389,10.447,10.447,0,0,1-3.849-1.316,4.745,4.745,0,0,1-2.211-2.708,3.668,3.668,0,0,1,0-1.969,4.817,4.817,0,0,1,1.649-2.4c1.888-1.585,4.456-2.034,7.194-1.844a33.143,33.143,0,0,1,9.527,2.463,16.432,16.432,0,0,0,1.411-1.386,18.961,18.961,0,0,0,1.734-2.25,92.287,92.287,0,0,0,9.654-20.473,184.988,184.988,0,0,0,5.4-19.531,39.929,39.929,0,0,1,5.659-13.052,39.433,39.433,0,0,1,9.77-10.161q.639-.464,1.351-.935l.5-.327a13.846,13.846,0,0,1-.595-2.968,14.451,14.451,0,0,1,.246-4.13,18.6,18.6,0,0,1,3.873-7.876,31.872,31.872,0,0,1,7.777-6.794,53.724,53.724,0,0,1,11.831-5.508,81.941,81.941,0,0,1,14.566-3.35,230.209,230.209,0,0,0,23.316-4.37,113.573,113.573,0,0,0,17.726-5.8,53.377,53.377,0,0,0,12.459-7.253,27.418,27.418,0,0,0,7.3-8.691,76.475,76.475,0,0,1,6.83-10.455,105.257,105.257,0,0,1,8.977-10.356l1.113-1.1.618-.593a35.962,35.962,0,0,0-2.813-9.721c-1.083-2.164-2.3-3.409-3.625-3.668-1.806-.356-4.181.875-6.985,3.559-3.042,2.905-6.465,7.458-10.124,13.512a19.8,19.8,0,0,1-6.957,6.879,19.415,19.415,0,0,1-9.36,2.633,82.439,82.439,0,0,0-24.677,3.885c-8.188,2.579-17.485,6.63-31.391,12.693l-4.571,1.99c-12.993,5.654-20.122,11.232-24.438,17.3-4.3,6.04-5.875,12.7-7.7,20.444a116.787,116.787,0,0,1-6.306,20.438,97.181,97.181,0,0,1-10.9,18.533c-4.191,5.752-8.673,11.032-12.873,15.982-4.132,4.87-7.986,9.409-10.8,13.541-2.73,4-4.493,7.607-4.589,10.738a12.294,12.294,0,0,0,.608,4.418,9.125,9.125,0,0,0,2.072,3.373,12.428,12.428,0,0,0,4.5,2.852,20.907,20.907,0,0,0,6.186,1.3,48.247,48.247,0,0,0,9.6-4.34A22.625,22.625,0,0,0,2514.4,3711.456Zm45.784-66.044a19.4,19.4,0,0,0,11.43,2.791,29.061,29.061,0,0,0,12.93-4.5,50.612,50.612,0,0,0,6.764-4.934c.937-.805,1.762-1.567,2.458-2.241a81.467,81.467,0,0,0-23.65-1.212,46.127,46.127,0,0,0-16.087,4.616,15.265,15.265,0,0,0,2,2.354A22.418,22.418,0,0,0,2560.188,3645.412Zm124.487-67.4c-12.829.768-20.889,7.517-27.99,13.5l-1.531,1.289c-1.831,1.531-3.246,2.743-4.325,3.707-1.1.981-1.931,1.775-2.578,2.454-.275.289-.5.539-.682.756a29.487,29.487,0,0,0,3.538-.1c3.838-.291,9.391-1.06,17.068-2.122l.064-.007a29.883,29.883,0,0,1,12.057.5,19.809,19.809,0,0,1,9.155,5.416,28.77,28.77,0,0,1,5.123,7.614,83.465,83.465,0,0,1,3.249,8.089c.721,1.988,1.42,3.923,2.168,5.564a15.844,15.844,0,0,0,1.837,3.19c.554-1.5,1.015-4.806,1.271-9.526a170.365,170.365,0,0,0-.423-21.469c-.244-3.2-.548-6.3-.9-9.283q-.484-4.074-1.094-7.791a60.812,60.812,0,0,0-7.98-1.512A45.529,45.529,0,0,0,2684.675,3578.012Zm-37.859,22.037-.01-.02ZM2512.5,3743.339a84.362,84.362,0,0,1-9.558-12.452c-1.977-3.113-3.368-5.707-4.084-7.105a25.325,25.325,0,0,1-4.946-.926,17.535,17.535,0,0,1-7.7-4.434,13.219,13.219,0,0,1-2.993-4.835,16.327,16.327,0,0,1-.852-5.968c.242-7.845,7.716-16.65,16.368-26.845,4.169-4.912,8.614-10.15,12.651-15.686a93.156,93.156,0,0,0,10.471-17.789,113.171,113.171,0,0,0,6.078-19.739l.031-.134c3.754-15.869,6.792-28.416,34.5-40.474l4.569-1.99c14.106-6.148,23.537-10.259,31.918-12.893a86.246,86.246,0,0,1,25.727-4.03,15.19,15.19,0,0,0,7.351-2.078,15.618,15.618,0,0,0,5.488-5.427,77.445,77.445,0,0,1,9.819-13.345c3.8-3.921,7.831-6.416,11.656-5.663,2.465.485,4.5,2.164,6.137,5.067a32.734,32.734,0,0,1,3.121,9.162,51.328,51.328,0,0,1,7.25-5.168,22.822,22.822,0,0,1,9.9-3.337,12.01,12.01,0,0,1,6.406,1.345,13.675,13.675,0,0,1,4.936,4.667,40.321,40.321,0,0,1,4.319,9.736,108.875,108.875,0,0,1,3.254,13.479,112.659,112.659,0,0,1,19.023,7.745A212.98,212.98,0,0,1,2746,3597.73c19.408,13.1,40.4,27.045,59.766,39.821,38.672,25.516,34.9,22.232,35.4,22.551a2.079,2.079,0,0,1-.7,3.779,2.062,2.062,0,0,1-1.566-.283l-.059-.042c-2.389-1.549-38.788-24.325-95.174-62.374a210.841,210.841,0,0,0-21.745-13.022,113.158,113.158,0,0,0-16.835-7.1c.318,2.082.608,4.233.866,6.438.343,2.916.637,5.941.874,9.052a173.211,173.211,0,0,1,.346,23.435c-.41,5.936-1.407,10.457-3.19,11.906a3.126,3.126,0,0,1-2.393.7,3.8,3.8,0,0,1-2.171-1.18c-2.47-2.494-3.944-6.57-5.5-10.884l0-.01c-1.764-4.887-3.768-10.425-7.443-14.215a15.771,15.771,0,0,0-7.364-4.319,25.85,25.85,0,0,0-10.3-.373c-9.306,1.286-15.192,2.076-18.92,2.26-4.325.211-6.134-.446-6.889-2.149-.636-1.439-.156-2.95,1.686-5.031a79.456,79.456,0,0,1,7.8-7.08l1.44-1.206c7.619-6.417,16.256-13.689,30.5-14.543a49.2,49.2,0,0,1,8.385.242,62.766,62.766,0,0,1,7.068,1.217,98.694,98.694,0,0,0-2.8-11.2,35.917,35.917,0,0,0-3.793-8.555,9.573,9.573,0,0,0-3.4-3.264,7.94,7.94,0,0,0-4.257-.89,18.426,18.426,0,0,0-7.733,2.6,51.559,51.559,0,0,0-9.433,7.088,2.663,2.663,0,0,1-.385.358,97.211,97.211,0,0,0-9.791,10.74,75.231,75.231,0,0,0-7.488,11.229,31.444,31.444,0,0,1-8.291,9.941,57.336,57.336,0,0,1-13.518,7.909,117.482,117.482,0,0,1-18.332,6.012,234.5,234.5,0,0,1-23.786,4.463,77.722,77.722,0,0,0-13.771,3.156,49.589,49.589,0,0,0-10.964,5.086,27.867,27.867,0,0,0-6.7,5.8,14.548,14.548,0,0,0-3.108,6.183,10.266,10.266,0,0,0-.175,2.828,10.111,10.111,0,0,0,.195,1.31,51.48,51.48,0,0,1,19.543-5.152,93.166,93.166,0,0,1,26.44,2.244,2.1,2.1,0,0,1,.951.481,2.135,2.135,0,0,1,.587.885,2.065,2.065,0,0,1-.384,2.013,53.324,53.324,0,0,1-6.038,5.853,54.32,54.32,0,0,1-6.714,4.822,33.125,33.125,0,0,1-14.922,5.07,23.518,23.518,0,0,1-13.74-3.336,26.557,26.557,0,0,1-4.963-3.733,19.178,19.178,0,0,1-2.68-3.207,35.4,35.4,0,0,0-9.14,8.773,36.055,36.055,0,0,0-5.909,12.817,189,189,0,0,1-5.538,20.029,96.182,96.182,0,0,1-10.1,21.345,22.673,22.673,0,0,1-1.827,2.422l-.7.769c.454.228.912.464,1.357.706a2.116,2.116,0,0,1,.624.54,2.061,2.061,0,0,1,.139,2.356,21.544,21.544,0,0,1-6.707,6.5,48.5,48.5,0,0,1-9.5,4.673c.8,1.5,2.045,3.7,3.691,6.253a79.674,79.674,0,0,0,8.713,11.268q1.284,1.366,2.577,2.588.994.938,2.012,1.808a38.967,38.967,0,0,1,3.99-1.315,54.555,54.555,0,0,1,5.481-1.186,91.5,91.5,0,0,1,14.505-1.089,167.055,167.055,0,0,1,16.885.878,22.972,22.972,0,0,0,2.324-7.91,36.047,36.047,0,0,0-.361-10.108,78.6,78.6,0,0,1-19.566-11.087c-5.648-4.581-8.617-9.126-8.783-12.655a5.928,5.928,0,0,1,1.812-4.708,9.216,9.216,0,0,1,5.11-2.261,12.71,12.71,0,0,1,7.669,1.423,24.835,24.835,0,0,1,7.365,5.983,43.086,43.086,0,0,1,5.793,8.686,50.77,50.77,0,0,1,3.916,10.256l.328,1.315a129.533,129.533,0,0,0,18.984,5.642,171.864,171.864,0,0,0,27.143,3.62c10.4.589,19.664-.583,27.737-3.49a49.78,49.78,0,0,0,20.563-13.855c6.881-7.71,11.373-17.527,13.932-27.62a85.29,85.29,0,0,0,1.682-34.135c-.792-4.613-.149-8.63,1.76-11.768a14.423,14.423,0,0,1,9.374-6.412,27.315,27.315,0,0,1,12.828.375,43.254,43.254,0,0,1,13.477,6.147,51.734,51.734,0,0,1,13.09,12.807,58.874,58.874,0,0,1,8.413,17.129,57.223,57.223,0,0,1,2.781,20.685,38.018,38.018,0,0,1-5.516,17.441,48.136,48.136,0,0,1-12.078,13.034,90.645,90.645,0,0,1-18.961,10.79,187.21,187.21,0,0,1-25.189,8.652c-9.612,2.636-20.5,5.046-32.794,7.26-6.159,1.11-11.856,2.341-17.139,3.658q-5.852,1.461-11.024,3.05a130.784,130.784,0,0,1,16.8,8,119.782,119.782,0,0,1,17.778,12.322,118.414,118.414,0,0,1,16.62,17.059,125.883,125.883,0,0,1,11.261,16.79q.714-5.756,1.869-11.85,1.572-8.307,3.949-17.187c1.914-7.148,3.925-12.5,6.158-16.274,2.354-3.974,4.992-6.253,8.043-7.061,4.272-1.128,8.758.72,13.95,4.677,4.94,3.765,10.573,9.471,17.355,16.341l.01.01c23.663,23.969,59.426,60.194,119.458,66.267a2.08,2.08,0,0,1,1.878,2.147l-.01.131a2.074,2.074,0,0,1-2.146,1.869l-.128-.009a166.313,166.313,0,0,1-21.291-3.552,161.093,161.093,0,0,1-20.435-6.253,165.607,165.607,0,0,1-17.021-7.621,179.219,179.219,0,0,1-16.511-9.688,223.254,223.254,0,0,1-26.332-20.552c-7.685-6.916-14.423-13.742-20.427-19.823-6.288-6.369-11.707-11.86-16.345-15.492-4.392-3.44-8.019-5.2-10.943-4.427-2.021.534-3.911,2.341-5.73,5.528-1.946,3.409-3.761,8.323-5.51,14.858-1.818,6.8-3.213,13.1-4.249,18.935-1.011,5.69-1.684,10.922-2.081,15.723l.379.79a145.244,145.244,0,0,1,9.589,26.329,131.334,131.334,0,0,1,4.364,27.4,2.08,2.08,0,0,1-.278,1.076,2.108,2.108,0,0,1-.8.782,2.139,2.139,0,0,1-.488.188,1.947,1.947,0,0,1-.516.071,2.081,2.081,0,0,1-.6-.089,2.11,2.11,0,0,1-.55-.258c-.277-.185-3.479-2.379-6.89-7.806a50.3,50.3,0,0,1-5.127-11.187,72.971,72.971,0,0,1-2.9-13.114,104.327,104.327,0,0,1-.826-15.036c.019-1.437.063-2.874.13-4.3q.1-2.071.25-4.077a119.113,119.113,0,0,0-28.028-36.488,121.528,121.528,0,0,0-40.093-23.082,180.771,180.771,0,0,0-21.729,9.02c-6.265,3.09-11.49,6.1-16.153,8.782l-.033.02c-10.639,6.122-18.475,10.633-28.606,10.631a34.7,34.7,0,0,1-4.543-.3,43.275,43.275,0,0,1-4.874-.916,38.69,38.69,0,0,1-18.795-10.827c-4.663-5.019-7.083-10.931-5.9-16.269a13.159,13.159,0,0,1,3.085-5.934,18.51,18.51,0,0,1,4.379-3.553l-1.1-1.025Q2513.726,3744.638,2512.5,3743.339Z" data-sanitized-data-name="Path 745" data-name="Path 745" id="Path_745"></path>
</svg>
